<?xml version="1.0" standalone="no"?>
<!DOCTYPE svg PUBLIC "-//W3C//DTD SVG 20010904//EN"
 "http://www.w3.org/TR/2001/REC-SVG-20010904/DTD/svg10.dtd">
<svg version="1.0" xmlns="http://www.w3.org/2000/svg"
 width="512.000000pt" height="512.000000pt" viewBox="0 0 512.000000 512.000000"
 preserveAspectRatio="xMidYMid meet">
<metadata>
Created by potrace 1.11, written by Peter Selinger 2001-2013
</metadata>
<g transform="translate(0.000000,512.000000) scale(0.100000,-0.100000)"
fill="#000000" stroke="none">
<path d="M2258 5105 c-481 -61 -934 -252 -1308 -551 -108 -86 -295 -274 -383
-384 -281 -349 -460 -750 -538 -1205 -26 -155 -37 -483 -20 -650 50 -496 245
-975 557 -1365 86 -108 274 -295 384 -383 349 -281 750 -460 1205 -538 155
-26 483 -37 650 -20 496 50 975 245 1365 557 108 86 295 274 383 384 281 349
460 750 538 1205 27 156 37 483 20 650 -61 601 -317 1143 -741 1565 -389 388
-851 625 -1405 721 -156 27 -546 35 -707 14z m222 -1685 l0 -180 -470 0 -470
0 0 -285 0 -285 425 0 425 0 0 -170 0 -170 -425 0 -425 0 0 -420 0 -420 -220
0 -220 0 0 1055 0 1055 690 0 690 0 0 -180z m700 -695 l0 -875 465 0 465 0 0
-180 0 -180 -680 0 -680 0 0 1055 0 1055 215 0 215 0 0 -875z"/>
</g>
</svg>
