<?xml version="1.0" standalone="no"?>
<!DOCTYPE svg PUBLIC "-//W3C//DTD SVG 20010904//EN"
 "http://www.w3.org/TR/2001/REC-SVG-20010904/DTD/svg10.dtd">
<svg version="1.0" xmlns="http://www.w3.org/2000/svg"
 width="1000.000000pt" height="1000.000000pt" viewBox="0 0 1000.000000 1000.000000"
 preserveAspectRatio="xMidYMid meet">
<metadata>
Created by potrace 1.14, written by Peter Selinger 2001-2017
</metadata>
<g transform="translate(0.000000,1000.000000) scale(0.100000,-0.100000)"
fill="#000000" stroke="none">
<path d="M1850 9162 c0 -4 4 -12 9 -17 4 -6 13 -23 19 -40 6 -16 23 -61 37
-100 62 -163 164 -491 181 -585 3 -13 13 -60 24 -105 10 -44 21 -96 24 -115 3
-19 8 -46 11 -60 3 -14 7 -36 10 -50 3 -14 7 -46 10 -71 3 -25 8 -56 10 -70 3
-13 7 -46 10 -74 3 -27 7 -61 10 -75 2 -14 7 -68 10 -120 4 -52 9 -115 11
-140 4 -57 4 -452 0 -505 -2 -22 -6 -85 -10 -140 -8 -106 -11 -141 -26 -245
-28 -202 -31 -691 -5 -910 2 -19 6 -60 10 -90 3 -30 7 -66 9 -80 5 -28 14 -96
21 -155 9 -66 64 -330 96 -454 77 -301 187 -594 334 -896 87 -177 246 -454
331 -577 87 -125 181 -256 194 -268 3 -3 32 -39 65 -80 32 -41 64 -80 70 -86
5 -6 37 -42 70 -80 131 -150 373 -383 545 -524 63 -52 73 -60 95 -78 8 -7 67
-51 131 -97 l115 -84 -38 -16 c-235 -100 -600 -220 -758 -251 -11 -2 -47 -10
-80 -18 -33 -9 -73 -18 -90 -20 -29 -5 -109 -21 -151 -30 -12 -2 -45 -7 -75
-11 -30 -3 -61 -8 -69 -10 -8 -2 -40 -7 -70 -10 -30 -3 -66 -8 -80 -10 -14 -2
-68 -7 -120 -11 -52 -4 -113 -8 -135 -10 -54 -4 -510 -4 -560 0 -22 2 -78 7
-125 11 -47 3 -101 8 -120 10 -105 11 -147 17 -160 20 -8 3 -38 7 -65 11 -28
3 -69 10 -93 15 -23 5 -59 12 -80 15 -20 3 -75 15 -122 26 -47 11 -93 22 -102
23 -143 28 -564 168 -723 240 -27 12 -75 33 -105 46 -30 12 -116 54 -190 91
-118 60 -130 64 -98 36 80 -73 451 -348 467 -348 5 0 11 -3 13 -8 5 -12 237
-160 403 -257 180 -105 444 -243 615 -320 69 -31 139 -62 155 -70 86 -39 345
-138 455 -173 124 -40 394 -119 434 -126 12 -2 50 -11 84 -20 125 -33 354 -79
492 -100 19 -3 46 -8 60 -11 30 -7 73 -14 120 -20 19 -2 67 -8 105 -14 39 -5
97 -13 130 -16 33 -4 71 -8 84 -10 135 -22 689 -22 836 0 17 2 59 7 95 10 82
7 233 28 294 41 11 2 37 7 56 10 208 33 671 166 845 243 37 17 90 38 125 51
75 28 401 191 520 260 224 130 446 284 635 439 172 140 357 317 505 481 75 82
223 259 255 304 11 15 38 51 60 81 22 29 46 61 52 71 7 11 30 44 51 74 154
225 314 520 428 790 36 85 71 169 78 185 7 17 39 111 70 210 139 436 186 559
322 840 165 343 419 734 649 1000 15 17 49 57 78 90 28 33 120 129 204 214 84
84 153 154 153 156 0 1 -24 -2 -52 -6 -29 -4 -71 -10 -93 -13 -177 -23 -477
-91 -653 -148 -34 -11 -68 -21 -75 -22 -14 -2 -67 -21 -232 -83 -602 -226
-1195 -602 -1638 -1036 l-69 -69 6 64 c4 34 9 83 12 108 14 128 19 519 9 645
-12 154 -17 211 -20 215 -1 3 -6 36 -10 73 -3 37 -8 78 -11 90 -2 12 -7 38
-10 57 -5 31 -41 212 -49 250 -21 90 -76 287 -92 330 -4 8 -7 17 -8 20 -72
239 -203 533 -353 794 -69 120 -72 124 -97 161 -11 17 -24 37 -30 46 -191 305
-571 725 -865 956 -8 6 -35 28 -60 47 -110 88 -211 158 -218 151 -7 -7 -8 -10
-16 -122 -6 -90 -31 -315 -41 -376 -8 -48 -24 -139 -30 -167 -3 -14 -8 -41
-11 -60 -27 -152 -179 -679 -224 -775 -5 -11 -21 -49 -36 -85 -49 -121 -124
-289 -142 -318 -14 -22 -16 -19 -76 80 -298 494 -704 926 -1182 1259 -138 96
-124 87 -269 174 -372 224 -905 429 -1300 500 -16 3 -66 12 -110 20 -94 17
-95 17 -95 7z"/>
</g>
</svg>
