<?xml version="1.0" standalone="no"?>
<!DOCTYPE svg PUBLIC "-//W3C//DTD SVG 20010904//EN"
 "http://www.w3.org/TR/2001/REC-SVG-20010904/DTD/svg10.dtd">
<svg version="1.0" xmlns="http://www.w3.org/2000/svg"
 width="516.000000pt" height="516.000000pt" viewBox="0 0 516.000000 516.000000"
 preserveAspectRatio="xMidYMid meet">
<metadata>
Created by potrace 1.11, written by Peter Selinger 2001-2013
</metadata>
<g transform="translate(0.000000,516.000000) scale(0.100000,-0.100000)"
fill="#000000" stroke="none">
<path d="M1080 2575 l0 -1055 220 0 220 0 0 420 0 420 430 0 430 0 0 170 0
170 -430 0 -430 0 0 285 0 285 470 0 470 0 0 180 0 180 -690 0 -690 0 0 -1055z"/>
<path d="M2720 2575 l0 -1055 683 2 682 3 0 180 0 180 -462 3 -463 2 0 870 0
870 -220 0 -220 0 0 -1055z"/>
</g>
</svg>
